<svg xmlns="http://www.w3.org/2000/svg" viewBox="0 0 166 91.4"><style>.st6{fill:#fff}.st142{fill:#f35850}</style><g id="Layer_1"><path class="st142" d="M37.4 86.6c-2.7 3.7-7.7 5.1-11.5 3.2-3.2-1.6-4.3-3.6-4.7-5.1-.5-1.9.1-4.1 1.5-6.1.5-.7 1.2-1.4 1.9-2.1-1-.7-2.1-1.4-3.3-2.2-2.6-1.8-5.4-3.6-7.9-5.5C9.3 65.5 6.6 63 5 60.7c-2.1-3.1-2.1-6.5-.1-9.3.8-1.1 1.8-2 3.1-2.8 1.1-.7 2.3-.8 3.4-.3s1.7 1.6 1.7 2.8c-.1 4.1 6 8.8 12 13.4 2.7 2.1 5.5 4.2 7.9 6.4 1-.8 1.9-1.7 2.6-2.6 1.7-2.4 2.3-5.2 1.7-8.3-.3-1.4.1-2.4.5-2.9.7-.9 2.1-1.8 4-1.4 1.9.4 4.5 1.7 5.8 4.4 1 1.9 1.6 5.2-.9 9.7-.3.5-.5.9-.9 1.4-2.1 2.9-5.1 4.6-8 5.9 1.8 3.3 1.6 6.7-.4 9.5z"/><path class="st142" d="M37 86.7c-2.7 3.7-7.7 5.1-11.5 3.2-3.2-1.6-4.3-3.6-4.7-5.1-.5-1.9.1-4.1 1.5-6.1.5-.7 1.2-1.4 1.9-2.1-1-.7-2.1-1.4-3.3-2.2-2.6-1.8-5.4-3.6-7.9-5.5-4.1-3.2-6.8-5.8-8.4-8.1-2.1-3.1-2.1-6.5-.1-9.3.8-1.1 1.8-2 3.1-2.8 1.1-.7 2.3-.8 3.4-.3s1.7 1.6 1.7 2.8c-.1 4.1 6 8.8 12 13.4 2.7 2.1 5.5 4.2 7.9 6.4 1-.8 1.9-1.7 2.6-2.6 1.7-2.4 2.3-5.2 1.7-8.3-.3-1.4.1-2.4.5-2.9.7-.9 2.1-1.8 4-1.4 1.9.4 4.5 1.7 5.8 4.4 1 1.9 1.6 5.2-.9 9.7-.3.5-.5.9-.9 1.4-2.1 2.9-5.1 4.6-8 5.9 1.8 3.3 1.7 6.7-.4 9.5z"/><path class="st142" d="M36.7 86.8C34 90.5 29 91.9 25.2 90c-3.2-1.6-4.3-3.6-4.7-5.1-.5-1.9.1-4.1 1.5-6.1.5-.7 1.2-1.4 1.9-2.1-1-.7-2.1-1.4-3.3-2.2-2.6-1.8-5.4-3.6-7.9-5.5-4.1-3.2-6.8-5.8-8.4-8.1-2.1-3.1-2.1-6.5-.1-9.3.8-1.1 1.8-2 3.1-2.8 1.1-.7 2.3-.8 3.4-.3s1.7 1.6 1.7 2.8c-.1 4.1 6 8.8 12 13.4 2.7 2.1 5.5 4.2 7.9 6.4 1-.8 1.9-1.7 2.6-2.6 1.7-2.4 2.3-5.2 1.7-8.3-.3-1.4.1-2.4.5-2.9.7-.9 2.1-1.8 4-1.4 1.9.4 4.5 1.7 5.8 4.4 1 1.9 1.6 5.2-.9 9.7-.3.5-.5.9-.9 1.4-2.1 2.9-5.1 4.6-8 5.9 1.8 3.2 1.6 6.7-.4 9.5z"/><path class="st142" d="M36.4 86.8c-2.7 3.7-7.7 5.1-11.5 3.2-3.2-1.6-4.3-3.6-4.7-5.1-.5-1.9.1-4.1 1.5-6.1.5-.7 1.2-1.4 1.9-2.1-1-.7-2.1-1.4-3.3-2.2-2.6-1.8-5.4-3.6-7.9-5.5-4.1-3.2-6.8-5.8-8.4-8.1-2-3.1-2-6.5 0-9.3.8-1.1 1.8-2 3.1-2.8 1.1-.7 2.3-.8 3.4-.3s1.7 1.6 1.7 2.8c-.1 4.1 6 8.8 12 13.4 2.7 2.1 5.5 4.2 7.9 6.4 1-.8 1.9-1.7 2.6-2.6 1.7-2.4 2.3-5.2 1.7-8.3-.3-1.4.1-2.4.5-2.9.7-.9 2.1-1.8 4-1.4 1.9.4 4.5 1.7 5.8 4.4 1 1.9 1.6 5.2-.9 9.7-.3.5-.5.9-.9 1.4-2.1 2.9-5.1 4.6-8 5.9 1.7 3.3 1.5 6.7-.5 9.5z"/><path class="st142" d="M36.1 86.9c-2.7 3.7-7.7 5.1-11.5 3.2-3.2-1.6-4.3-3.6-4.7-5.1-.5-1.9.1-4.1 1.5-6.1.5-.7 1.2-1.4 1.9-2.1-1-.7-2.1-1.4-3.3-2.2-2.6-1.8-5.4-3.6-7.9-5.5C8 65.9 5.3 63.3 3.7 61c-2.1-3.1-2.1-6.5-.1-9.3.8-1.1 1.8-2 3.1-2.8 1.1-.7 2.3-.8 3.4-.3s1.7 1.6 1.7 2.8c-.1 4.1 6 8.8 12 13.4 2.7 2.1 5.5 4.2 7.9 6.4 1-.8 1.9-1.7 2.6-2.6 1.7-2.4 2.3-5.2 1.7-8.3-.3-1.4.1-2.4.5-2.9.7-.9 2.1-1.8 4-1.4 1.9.4 4.5 1.7 5.8 4.4 1 1.9 1.6 5.2-.9 9.7-.3.5-.5.9-.9 1.4-2.1 2.9-5.1 4.6-8 5.9 1.8 3.3 1.6 6.7-.4 9.5z"/><path class="st142" d="M35.8 87c-2.7 3.7-7.7 5.1-11.5 3.2-3.2-1.6-4.3-3.6-4.7-5.1-.5-1.9.1-4.1 1.5-6.1.5-.7 1.2-1.4 1.9-2.1-1-.7-2.1-1.4-3.3-2.2-2.6-1.8-5.4-3.6-7.9-5.5C7.7 66 5 63.4 3.4 61.1c-2.1-3.1-2.1-6.5-.1-9.3.8-1.1 1.8-2 3.1-2.8 1.1-.7 2.3-.8 3.4-.3s1.7 1.6 1.7 2.8c-.1 4.1 6 8.8 12 13.4 2.7 2.1 5.5 4.2 7.9 6.4 1-.8 1.9-1.7 2.6-2.6 1.7-2.4 2.3-5.2 1.7-8.3-.3-1.4.1-2.4.5-2.9.7-.9 2.1-1.8 4-1.4 1.9.4 4.5 1.7 5.8 4.4 1 1.9 1.6 5.2-.9 9.7-.3.5-.5.9-.9 1.4-2.1 2.9-5.1 4.6-8 5.9 1.8 3.2 1.6 6.7-.4 9.5z"/><path class="st142" d="M35.5 87c-2.7 3.7-7.7 5.1-11.5 3.2-3.2-1.6-4.3-3.6-4.7-5.1-.5-1.9.1-4.1 1.5-6.1.5-.7 1.2-1.4 1.9-2.1-1-.7-2.1-1.4-3.3-2.2-2.6-1.8-5.4-3.6-7.9-5.5-4.1-3.2-6.8-5.8-8.4-8.1-2-3.1-2.1-6.5 0-9.3.8-1.1 1.8-2 3.1-2.8 1.1-.7 2.3-.8 3.4-.3s1.7 1.6 1.7 2.8c-.1 4.1 6 8.8 12 13.4 2.7 2.1 5.5 4.2 7.9 6.4 1-.8 1.9-1.7 2.6-2.6 1.7-2.4 2.3-5.2 1.7-8.3-.3-1.4.1-2.4.5-2.9.7-.9 2.1-1.8 4-1.4 1.9.4 4.5 1.7 5.8 4.4 1 1.9 1.6 5.2-.9 9.7-.3.5-.5.9-.9 1.4-2.1 2.9-5.1 4.6-8 5.9 1.7 3.3 1.5 6.8-.5 9.5z"/><path class="st142" d="M35.2 87.1c-2.7 3.7-7.7 5.1-11.5 3.2-3.2-1.6-4.3-3.6-4.7-5.1-.5-1.9.1-4.1 1.5-6.1.5-.7 1.2-1.4 1.9-2.1-1-.7-2.1-1.4-3.3-2.2-2.6-1.8-5.4-3.6-7.9-5.5-4.1-3.2-6.8-5.8-8.4-8.1-2.1-3.1-2.1-6.5-.1-9.3.8-1.1 1.8-2 3.1-2.8 1.1-.7 2.3-.8 3.4-.3s1.7 1.6 1.7 2.8c-.1 4.1 6 8.8 12 13.4 2.7 2.1 5.5 4.2 7.9 6.4 1-.8 1.9-1.7 2.6-2.6 1.7-2.4 2.3-5.2 1.7-8.3-.3-1.4.1-2.4.5-2.9.7-.9 2.1-1.8 4-1.4 1.9.4 4.5 1.7 5.8 4.4 1 1.9 1.6 5.2-.9 9.7-.3.5-.5.9-.9 1.4-2.1 2.9-5.1 4.6-8 5.9 1.8 3.3 1.6 6.7-.4 9.5z"/><path class="st142" d="M34.8 87.2c-2.7 3.7-7.7 5.1-11.5 3.2-3.2-1.6-4.3-3.6-4.7-5.1-.5-1.9.1-4.1 1.5-6.1.5-.7 1.2-1.4 1.9-2.1-1-.7-2.1-1.4-3.3-2.2-2.6-1.8-5.4-3.6-7.9-5.5-4.1-3.2-6.8-5.8-8.4-8.1C.3 58.2.3 54.8 2.3 52c.8-1.1 1.8-2 3.1-2.8 1.1-.7 2.3-.8 3.4-.3s1.7 1.6 1.7 2.8c-.1 4.1 6 8.8 12 13.4 2.7 2.1 5.5 4.2 7.9 6.4 1-.8 1.9-1.7 2.6-2.6 1.7-2.4 2.3-5.2 1.7-8.3-.3-1.4.1-2.4.5-2.9.7-.9 2.1-1.8 4-1.4 1.9.4 4.5 1.7 5.8 4.4 1 1.9 1.6 5.2-.9 9.7-.3.5-.5.9-.9 1.4-2.1 2.9-5.1 4.6-8 5.9 1.9 3.3 1.7 6.7-.4 9.5z"/><path class="st142" d="M34.5 87.3c-2.7 3.7-7.7 5.1-11.5 3.2-3.2-1.6-4.3-3.6-4.7-5.1-.5-1.9.1-4.1 1.5-6.1.5-.7 1.2-1.4 1.9-2.1-1-.7-2.1-1.4-3.3-2.2-2.6-1.8-5.4-3.6-7.9-5.5-4.1-3.2-6.8-5.8-8.4-8.1C0 58.3 0 54.9 2 52.1c.8-1.1 1.8-2 3.1-2.8 1.1-.7 2.3-.8 3.4-.3s1.7 1.6 1.7 2.8c-.1 4.1 6 8.8 12 13.4 2.7 2.1 5.5 4.2 7.9 6.4 1-.8 1.9-1.7 2.6-2.6 1.7-2.4 2.3-5.2 1.7-8.3-.3-1.4.1-2.4.5-2.9.7-.9 2.1-1.8 4-1.4 1.9.4 4.5 1.7 5.8 4.4 1 1.9 1.6 5.2-.9 9.7-.3.5-.5.9-.9 1.4-2.1 2.9-5.1 4.6-8 5.9 1.8 3.2 1.6 6.7-.4 9.5z"/><path class="st142" d="M34.2 87.3c-2.7 3.7-7.7 5.1-11.5 3.2-3.2-1.6-4.3-3.6-4.7-5.1-.5-1.9.1-4.1 1.5-6.1.5-.7 1.2-1.4 1.9-2.1-1-.7-2.1-1.4-3.3-2.2-2.6-1.8-5.4-3.6-7.9-5.5-4.1-3.2-6.8-5.8-8.4-8.1-2.1-3.1-2.1-6.5-.1-9.3.9-1.1 2-2.1 3.3-2.9 1.1-.7 2.3-.8 3.4-.3s1.7 1.6 1.7 2.8c-.1 4.1 6 8.8 12 13.4 2.7 2.1 5.5 4.2 7.9 6.4 1-.8 1.9-1.7 2.6-2.6 1.7-2.4 2.3-5.2 1.7-8.3-.3-1.4.1-2.4.5-2.9.7-.9 2.1-1.8 4-1.4 1.9.4 4.5 1.7 5.8 4.4 1 1.9 1.6 5.2-.9 9.7-.3.5-.5.9-.9 1.4-2.1 2.9-5.1 4.6-8 5.9 1.6 3.4 1.4 6.8-.6 9.6z"/><path class="st142" d="M33.9 87.4c-2.7 3.7-7.7 5.1-11.5 3.2-3.2-1.6-4.3-3.6-4.7-5.1-.5-1.9.1-4.1 1.5-6.1.5-.7 1.2-1.4 1.9-2.1-1-.7-2.1-1.4-3.3-2.2-2.6-1.8-5.4-3.6-7.9-5.5-4.1-3.2-6.8-5.8-8.4-8.1-2.1-3.1-2.1-6.5-.1-9.3.8-1.1 1.8-2 3.1-2.8 1.2-.8 2.5-.9 3.5-.4 1.1.5 1.7 1.6 1.7 2.8-.1 4.1 6 8.8 12 13.4 2.7 2.1 5.5 4.2 7.9 6.4 1-.8 1.9-1.7 2.6-2.6 1.7-2.4 2.3-5.2 1.7-8.3-.3-1.4.1-2.4.6-2.9.7-.9 2.1-1.8 4-1.4 1.9.4 4.5 1.7 5.8 4.4 1 1.9 1.6 5.2-.9 9.7-.3.5-.5.9-.9 1.4-2.1 2.9-5.1 4.6-8 5.9 1.6 3.4 1.4 6.8-.6 9.6z"/><path class="st142" d="M45.1 58.9c-.1.1-.2.1-.3.2-1.7 1.3-3.8 1.8-6.1 1.4-5.5-1-11-7-12.5-10.1-2.4-5.1-.6-8.4 1.4-10.3.5-.5 1.1-1 1.8-1.4 2.5-1.6 5.5-1.4 7.8.7 2.2 2 3.4 5.4 3.2 8.7.4-.1.8-.2 1.3-.1 1.1.1 2.6.6 3.4 1.7 2.3 3.2 1.9 7.4 0 9.2z"/><path class="st142" d="M44.8 58.9c-.1.1-.2.1-.2.2-1.7 1.4-3.8 1.8-6.1 1.4-5.5-1-11-7-12.5-10.1-2.4-5.1-.6-8.4 1.4-10.3.5-.5 1.1-1 1.8-1.4 2.5-1.6 5.5-1.4 7.8.7 2.2 2 3.4 5.4 3.2 8.7.4-.1.8-.2 1.3-.1 1.1.1 2.6.6 3.4 1.7 2.2 3.2 1.7 7.4-.1 9.2z"/><path class="st142" d="M44.4 58.9c-.1.1-.2.1-.2.2-1.7 1.4-3.8 1.8-6.1 1.4-5.5-1-11-7-12.5-10.1-2.4-5.1-.6-8.4 1.4-10.3.5-.5 1.1-1 1.8-1.4 2.5-1.6 5.5-1.4 7.8.7 2.2 2 3.4 5.4 3.2 8.7.3-.1.7-.1 1.2-.1 1.1.1 2.6.6 3.4 1.7 2.4 3.2 1.9 7.4 0 9.2z"/><path class="st142" d="M44.1 58.9c-.1.1-.1.2-.2.3-1.7 1.4-3.8 1.8-6.1 1.4-5.5-1-11-7-12.5-10.1-2.4-5.1-.6-8.4 1.4-10.3.5-.5 1.1-1 1.8-1.4 2.5-1.6 5.5-1.4 7.8.7 2.2 2 3.4 5.4 3.2 8.7.4-.1.8-.2 1.3-.1 1.1.1 2.6.6 3.4 1.7 2.3 3.1 1.8 7.3-.1 9.1z"/><path class="st142" d="M43.8 59c-.1.1-.2.1-.2.2-1.7 1.4-3.8 1.8-6.1 1.4-5.5-1-11-7-12.5-10.1-2.4-5.1-.6-8.4 1.4-10.3.5-.5 1.1-1 1.8-1.4 2.5-1.6 5.5-1.4 7.8.7 2.2 2 3.4 5.4 3.2 8.7.4-.1.8-.2 1.3-.1 1.1.1 2.6.6 3.4 1.7 2.3 3.1 1.8 7.3-.1 9.2z"/><path class="st142" d="M43.5 59c-.1.1-.2.1-.2.2-1.7 1.3-3.8 1.8-6.1 1.4-5.5-1-11-7-12.5-10.1-2.4-5.1-.6-8.4 1.4-10.3.5-.5 1.1-1 1.8-1.4 2.5-1.6 5.5-1.4 7.8.7 2.2 2 3.4 5.4 3.2 8.7.4-.1.8-.2 1.3-.1 1.1.1 2.6.6 3.4 1.7 2.2 3.1 1.8 7.4-.1 9.2z"/><path class="st142" d="M43.1 59c-.1.1-.2.1-.2.2-1.7 1.3-3.8 1.8-6.1 1.4-5.5-1-11-7-12.5-10.1-2.4-5.1-.6-8.4 1.4-10.3.5-.5 1.1-1 1.8-1.4 2.5-1.6 5.5-1.4 7.8.7 2.2 2 3.4 5.4 3.2 8.7.4-.1.8-.2 1.3-.1 1.1.1 2.6.6 3.4 1.7 2.3 3.1 1.8 7.4-.1 9.2z"/><path class="st142" d="M42.8 59c-.1.1-.2.1-.2.2-1.7 1.3-3.8 1.8-6.1 1.4-5.5-1-11-7-12.5-10.1-2.4-5.1-.6-8.4 1.4-10.3.5-.5 1.1-1 1.8-1.4 2.5-1.6 5.5-1.4 7.8.7 2.2 2 3.4 5.4 3.2 8.7.4-.1.8-.2 1.3-.1 1.1.1 2.6.6 3.4 1.7 2.3 3.2 1.8 7.4-.1 9.2z"/><path class="st142" d="M42.5 59c-.1.1-.2.1-.2.2-1.7 1.3-3.8 1.8-6.1 1.4-5.5-1-11-7-12.5-10.1-2.4-5.1-.6-8.4 1.4-10.3.5-.5 1.1-1 1.8-1.4 2.5-1.6 5.5-1.4 7.8.7 2.2 2 3.4 5.4 3.2 8.7.4-.1.8-.2 1.3-.1 1.1.1 2.6.6 3.4 1.7 2.3 3.2 1.8 7.4-.1 9.2z"/><path class="st142" d="M42.2 59c-.1.1-.2.1-.2.2-1.7 1.3-3.8 1.8-6.1 1.4-5.5-1-11-7-12.5-10.1-2.4-5.1-.6-8.4 1.4-10.3.5-.5 1.1-1 1.8-1.4 2.5-1.6 5.5-1.4 7.8.7 2.2 2 3.4 5.4 3.2 8.7.4-.1.8-.2 1.3-.1 1.1.1 2.6.6 3.4 1.7 2.2 3.2 1.8 7.4-.1 9.2z"/><path class="st142" d="M41.9 59.1c-.1.1-.2.1-.2.2-1.7 1.3-3.8 1.8-6.1 1.4-5.5-1-11-7-12.5-10.1-2.4-5.1-.6-8.4 1.4-10.3.5-.5 1.1-1 1.8-1.4 2.5-1.6 5.5-1.4 7.8.7 2.2 2 3.4 5.4 3.2 8.7.4-.1.8-.2 1.3-.1 1.1.1 2.6.6 3.4 1.7 2.2 3.1 1.7 7.3-.1 9.2z"/><path class="st142" d="M41.5 59.1c-.1.1-.2.1-.2.2-1.7 1.3-3.8 1.8-6.1 1.4-5.5-1-11-7-12.5-10.1-2.4-5.1-.6-8.4 1.4-10.3.5-.5 1.1-1 1.8-1.4 2.5-1.6 5.5-1.4 7.8.7 2.2 2 3.4 5.4 3.2 8.7.4-.1.8-.2 1.3-.1 1.1.1 2.6.6 3.4 1.7 2.3 3.1 1.8 7.4-.1 9.2z"/><g><path class="st142" d="M50.5 16.9c-1.1-.6-2.5-.6-3.5 0-.5.3-1.3 1.1-1.3 2.5 0 1.1-1.3 2.4-3 3.8-2.6-1.4-5.5-1.1-7.4.1-.9.6-1.6 1.3-2 2.2-.4.8-.4 1.7 0 2.5.3.6.8 1.1 1.3 1.4l-.8.8c-2.5 2.8-2.6 5.9-.2 8 1.5 1.3 3.1 1.2 4.2.5.7-.4 1.1-1.1 1.1-1.8 0-.5.4-1 1-1.5.9 1.7 1.7 3.6 2.4 5.3 1.2 2.8 2.4 5.5 3.7 7.3 2.1 2.8 4.4 3.7 6 4 2 .4 4 0 5.8-1.2 1.1-.7 1.6-1.8 1.2-2.9-.3-1-1.2-1.8-2.4-2-.9-.2-2.7-1.7-3.9-5.2-.4-1.2-.8-2.3-1.1-3.4-.8-2.5-1.5-5-3.1-7.6 1.6-1.1 2.8-2 3.7-2.9 1.9-2 2-3.9 1.7-5.2-.3-2.5-2.3-4.2-3.4-4.7z"/><path class="st142" d="M50.2 16.8c-1.1-.6-2.5-.6-3.5 0-.5.3-1.3 1.1-1.3 2.5 0 1.1-1.3 2.4-3 3.8-2.6-1.4-5.5-1.1-7.4.1-.9.6-1.6 1.3-2 2.2-.4.8-.4 1.7 0 2.5.3.6.8 1.1 1.3 1.4l-.8.8c-2.5 2.8-2.6 5.9-.2 8 1.5 1.3 3.1 1.2 4.2.5.7-.4 1.1-1.1 1.1-1.8.1-.5.4-1 1-1.5.9 1.7 1.7 3.6 2.4 5.3 1.2 2.8 2.4 5.5 3.7 7.3 2.1 2.8 4.4 3.7 6 4 2 .4 4 0 5.8-1.2 1.1-.7 1.6-1.8 1.2-2.9-.3-1-1.2-1.8-2.4-2-.9-.2-2.7-1.7-3.9-5.2-.4-1.2-.8-2.3-1.1-3.4-.8-2.5-1.5-5-3.1-7.6 1.6-1.1 2.8-2 3.7-2.9 1.9-2 2-3.9 1.7-5.2-.3-2.5-2.4-4.1-3.4-4.7z"/><path class="st142" d="M49.9 16.8c-1.1-.6-2.5-.6-3.5 0-.5.3-1.3 1.1-1.3 2.5 0 1.1-1.3 2.4-3 3.8-2.6-1.4-5.5-1.1-7.4.1-.9.6-1.6 1.3-2 2.2-.4.8-.4 1.7 0 2.5.3.6.8 1.1 1.3 1.4l-.8.8c-2.5 2.8-2.6 5.9-.2 8 1.5 1.3 3.1 1.2 4.2.5.7-.4 1.1-1.1 1.1-1.8 0-.5.4-1 1-1.5.9 1.7 1.7 3.6 2.4 5.3 1.2 2.8 2.4 5.5 3.7 7.3 2.1 2.8 4.4 3.7 6 4 2 .4 4 0 5.8-1.2 1.1-.7 1.6-1.8 1.2-2.9-.3-1-1.2-1.8-2.4-2-.9-.2-2.7-1.7-3.9-5.2-.4-1.2-.8-2.3-1.1-3.4-.8-2.5-1.5-5-3.1-7.6 1.6-1.1 2.8-2 3.7-2.9 1.9-2 2-3.9 1.7-5.2-.4-2.5-2.4-4.2-3.4-4.7z"/><path class="st142" d="M49.6 16.7c-1.1-.6-2.5-.6-3.5 0-.5.3-1.3 1.1-1.3 2.5 0 1.1-1.3 2.4-3 3.8-2.6-1.4-5.5-1.1-7.4.1-.9.6-1.6 1.3-2 2.2-.4.8-.4 1.7 0 2.5.3.6.8 1.1 1.3 1.4l-.8.8c-2.5 2.8-2.6 5.9-.2 8 1.5 1.3 3.1 1.2 4.2.5.7-.4 1.1-1.1 1.1-1.8 0-.5.4-1 1-1.5.9 1.7 1.7 3.6 2.4 5.3 1.2 2.8 2.4 5.5 3.7 7.3 2.1 2.8 4.4 3.7 6 4 2 .4 4 0 5.8-1.2 1.1-.7 1.6-1.8 1.2-2.9-.3-1-1.2-1.8-2.4-2-.9-.2-2.7-1.7-3.9-5.2-.4-1.2-.8-2.3-1.1-3.4-.8-2.5-1.5-5-3.1-7.6 1.6-1.1 2.8-2 3.7-2.9 1.9-2 2-3.9 1.7-5.2-.4-2.5-2.4-4.1-3.4-4.7z"/><path class="st142" d="M49.3 16.7c-1.1-.6-2.5-.6-3.5 0-.5.3-1.3 1.1-1.3 2.5 0 1.1-1.3 2.4-3 3.8-2.6-1.4-5.5-1.1-7.4.1-.9.6-1.6 1.3-2 2.2-.4.8-.4 1.7 0 2.5.3.6.8 1.1 1.3 1.4l-.8.8c-2.5 2.8-2.6 5.9-.2 8 1.5 1.3 3.1 1.2 4.2.5.7-.4 1.1-1.1 1.1-1.8 0-.5.4-1 1-1.5.9 1.7 1.7 3.6 2.4 5.3 1.2 2.8 2.4 5.5 3.7 7.3 2.1 2.8 4.4 3.7 6 4 2 .4 4 0 5.8-1.2 1.1-.7 1.6-1.8 1.2-2.9-.3-1-1.2-1.8-2.4-2-.9-.2-2.7-1.7-3.9-5.2-.4-1.2-.8-2.3-1.1-3.4-.8-2.5-1.5-5-3.1-7.6 1.6-1.1 2.8-2 3.7-2.9 1.9-2 2-3.9 1.7-5.2-.4-2.5-2.4-4.2-3.4-4.7z"/><path class="st142" d="M49 16.6c-1.1-.6-2.5-.6-3.5 0-.5.3-1.3 1.1-1.3 2.5 0 1.1-1.3 2.4-3 3.8-2.6-1.4-5.5-1.1-7.4.1-.9.6-1.6 1.3-2 2.2-.4.8-.4 1.7 0 2.5.3.6.8 1.1 1.3 1.4l-.8.8c-2.5 2.8-2.6 5.9-.2 8 1.5 1.3 3.1 1.2 4.2.5.7-.4 1.1-1.1 1.1-1.8 0-.5.4-1 1-1.5.9 1.7 1.7 3.6 2.4 5.3 1.2 2.8 2.4 5.5 3.7 7.3 2.1 2.8 4.4 3.7 6 4 2 .4 4 0 5.8-1.2 1.1-.7 1.6-1.8 1.2-2.9-.3-1-1.2-1.8-2.4-2-.9-.2-2.7-1.7-3.9-5.2-.4-1.2-.8-2.3-1.1-3.4-.8-2.5-1.5-5-3.1-7.6 1.6-1.1 2.8-2 3.7-2.9 1.9-2 2-3.9 1.7-5.2-.4-2.5-2.4-4.1-3.4-4.7z"/><path class="st142" d="M48.6 16.6c-1.1-.6-2.5-.6-3.5 0-.5.3-1.3 1.1-1.3 2.5 0 1.1-1.3 2.4-3 3.8-2.6-1.4-5.5-1.1-7.4.1-.9.6-1.6 1.3-2 2.2-.4.8-.4 1.7 0 2.5.3.6.8 1.1 1.3 1.4l-.8.8c-2.5 2.8-2.6 5.9-.2 8 1.5 1.3 3.1 1.2 4.2.5.7-.4 1.1-1.1 1.1-1.8 0-.5.4-1 1-1.5.9 1.7 1.7 3.6 2.4 5.3 1.2 2.8 2.4 5.5 3.7 7.3 2.1 2.8 4.4 3.7 6 4 2 .4 4 0 5.8-1.2 1.1-.7 1.6-1.8 1.2-2.9-.3-1-1.2-1.8-2.4-2-.9-.2-2.7-1.7-3.9-5.2-.4-1.2-.8-2.3-1.1-3.4-.8-2.5-1.5-5-3.1-7.6 1.6-1.1 2.8-2 3.7-2.9 1.9-2 2-3.9 1.7-5.2-.3-2.5-2.4-4.2-3.4-4.7z"/><path class="st142" d="M48.3 16.5c-1.1-.6-2.5-.6-3.5 0-.5.3-1.3 1.1-1.3 2.5 0 1.1-1.3 2.4-3 3.8-2.6-1.4-5.5-1.1-7.4.1-.9.6-1.6 1.3-2 2.2-.4.8-.4 1.7 0 2.5.3.6.8 1.1 1.3 1.4l-.8.8c-2.5 2.8-2.6 5.9-.2 8 1.5 1.3 3.1 1.2 4.2.5.7-.4 1.1-1.1 1.1-1.8 0-.5.4-1 1-1.5.9 1.7 1.7 3.6 2.4 5.3 1.2 2.8 2.4 5.5 3.7 7.3 2.1 2.8 4.4 3.7 6 4 2 .4 4 0 5.8-1.2 1.1-.7 1.6-1.8 1.2-2.9-.3-1-1.2-1.8-2.4-2-.9-.2-2.7-1.7-3.9-5.2-.4-1.2-.8-2.3-1.1-3.4-.8-2.5-1.5-5-3.1-7.6 1.6-1.1 2.8-2 3.7-2.9 1.9-2 2-3.9 1.7-5.2-.3-2.5-2.4-4.1-3.4-4.7z"/><path class="st142" d="M48 16.5c-1.1-.6-2.5-.6-3.5 0-.5.3-1.3 1.1-1.3 2.5 0 1.1-1.3 2.4-3 3.8-2.6-1.4-5.5-1.1-7.4.1-.9.6-1.6 1.3-2 2.2-.4.8-.4 1.7 0 2.5.3.6.8 1.1 1.3 1.4l-.8.8c-2.5 2.8-2.6 5.9-.2 8 1.5 1.3 3.1 1.2 4.2.5.7-.4 1.1-1.1 1.1-1.8 0-.5.4-1 1-1.5.9 1.7 1.7 3.6 2.4 5.3 1.2 2.8 2.4 5.5 3.7 7.3 2.1 2.8 4.4 3.7 6 4 2 .4 4 0 5.8-1.2 1.1-.7 1.6-1.8 1.2-2.9-.3-1-1.2-1.8-2.4-2-.9-.2-2.7-1.7-3.9-5.2-.4-1.2-.8-2.3-1.1-3.4-.8-2.5-1.5-5-3.1-7.6 1.6-1.1 2.8-2 3.7-2.9 1.9-2 2-3.9 1.7-5.2C51 18.7 49 17 48 16.5z"/><path class="st142" d="M47.7 16.4c-1.1-.6-2.5-.6-3.5 0-.5.3-1.3 1.1-1.3 2.5 0 1.1-1.3 2.4-3 3.8-2.6-1.4-5.5-1.1-7.4.1-.9.6-1.6 1.3-2 2.2-.4.8-.4 1.7 0 2.5.3.6.8 1.1 1.3 1.4l-.8.8c-2.5 2.8-2.6 5.9-.2 8 1.5 1.3 3.1 1.2 4.2.5.7-.4 1.1-1.1 1.1-1.8 0-.5.4-1 1-1.5.9 1.7 1.7 3.6 2.4 5.3 1.2 2.8 2.4 5.5 3.7 7.3 2.1 2.8 4.4 3.7 6 4 2 .4 4 0 5.8-1.2 1.1-.7 1.6-1.8 1.2-2.9-.3-1-1.2-1.8-2.4-2-.9-.2-2.7-1.7-3.9-5.2-.4-1.2-.8-2.3-1.1-3.4-.8-2.5-1.5-5-3.1-7.6 1.6-1.1 2.8-2 3.7-2.9 1.9-2 2-3.9 1.7-5.2-.4-2.5-2.4-4.1-3.4-4.7z"/><path class="st142" d="M47.4 16.4c-1.1-.6-2.5-.6-3.5 0-.5.3-1.3 1.1-1.3 2.5 0 1.1-1.3 2.4-3 3.8-2.6-1.4-5.5-1.1-7.4.1-.9.6-1.6 1.3-2 2.2-.4.8-.4 1.7 0 2.5.3.6.8 1.1 1.3 1.4l-.8.8c-2.5 2.8-2.6 5.9-.2 8 1.5 1.3 3.1 1.2 4.2.5.7-.4 1.1-1.1 1.1-1.8 0-.5.4-1 1-1.5.9 1.7 1.7 3.6 2.4 5.3 1.2 2.8 2.4 5.5 3.7 7.3 2.1 2.8 4.4 3.7 6 4 2 .4 4 0 5.8-1.2 1.1-.7 1.6-1.8 1.2-2.9-.3-1-1.2-1.8-2.4-2-.9-.2-2.7-1.7-3.9-5.2-.4-1.2-.8-2.3-1.1-3.4-.8-2.5-1.5-5-3.1-7.6 1.6-1.1 2.8-2 3.7-2.9 1.9-2 2-3.9 1.7-5.2-.4-2.5-2.4-4.2-3.4-4.7z"/><path class="st142" d="M47.1 16.3c-1.1-.6-2.5-.6-3.5 0-.5.3-1.3 1.1-1.3 2.5 0 1.1-1.3 2.4-3 3.8-2.6-1.4-5.5-1.1-7.4.1-.9.6-1.6 1.3-2 2.2-.4.8-.4 1.7 0 2.5.3.6.8 1.1 1.3 1.4l-.8.8c-2.5 2.8-2.6 5.9-.2 8 1.5 1.3 3.1 1.2 4.2.5.7-.4 1.1-1.1 1.1-1.8 0-.5.4-1 1-1.5.9 1.7 1.7 3.6 2.4 5.3 1.2 2.8 2.4 5.5 3.7 7.3 2.1 2.8 4.4 3.7 6 4 2 .4 4 0 5.8-1.2 1.1-.7 1.6-1.8 1.2-2.9-.3-1-1.2-1.8-2.4-2-.9-.2-2.7-1.7-3.9-5.2-.4-1.2-.8-2.3-1.1-3.4-.8-2.5-1.5-5-3.1-7.6 1.6-1.1 2.8-2 3.7-2.9 1.9-2 2-3.9 1.7-5.2-.4-2.5-2.4-4.1-3.4-4.7z"/></g><g><path class="st142" d="M48.8 24.6c-1.1.8-1 2.5-.7 4.1.4 2.4 1.7 3.7 2.6 4.4 1.2.8 2.7 1.1 4.3.9 1-.1 1.7-.7 1.9-1.5.2-.8-.2-1.5-.9-2-.5-.4-1.4-1.9-.9-4.5 1-3.9-4.3-2.7-6.3-1.4z"/><path class="st142" d="M50.9 23.9c-1.1.8.4 4.7.7 6.2.4 2.4 1.7 3.7 2.6 4.4 1.2.8 2.7 1.1 4.3.9 1-.1 1.7-.7 1.9-1.5.2-.8-.2-1.5-.9-2-.5-.4-1.4-1.9-.9-4.5 1-3.9-5.8-4.8-7.7-3.5z"/></g><g><path class="st142" d="M71.9 44.9c-.7.4-1.4.6-2.3.9-3.2.9-6 0-7.4-2.5-1.5-2.7-1-6.8 1.1-9.1-1-1.1-1.9-2.2-2.6-3.2-1-1.5-2.1-3.9-1.4-6.4.5-1.7 1.8-3.1 3.9-4.2l.2-.1c3.3-1.6 5.3-.4 6 .2 1.8 1.6 2 4.5 1.2 6.5-.1.3-.3.6-.5.9l.5.5c1.4 1.4 3 3 4.1 4.8.5.9 2.1 4 1 7.3-.5 1.8-1.9 3.4-3.8 4.4z"/><path class="st142" d="M71.6 44.8c-.7.4-1.4.6-2.3.9-3.2.9-6 0-7.4-2.5-1.5-2.7-1-6.8 1.1-9.1-1-1.1-1.9-2.2-2.6-3.2-1-1.5-2.1-3.9-1.4-6.4.5-1.7 1.8-3.1 3.9-4.2l.2-.1c3.3-1.6 5.3-.4 6 .2 1.8 1.6 2 4.5 1.2 6.5-.1.3-.3.6-.5.9l.5.5c1.4 1.4 3 3 4.1 4.8.5.9 2.1 4 1 7.3-.5 1.9-1.9 3.4-3.8 4.4z"/><path class="st142" d="M71.3 44.7c-.7.4-1.4.6-2.3.9-3.2.9-6 0-7.4-2.5-1.5-2.7-1-6.8 1.1-9.1-1-1.1-1.9-2.2-2.6-3.2-1-1.5-2.1-3.9-1.4-6.4.5-1.7 1.8-3.1 3.9-4.2l.2-.1c3.3-1.6 5.3-.4 6 .2 1.8 1.6 2 4.5 1.2 6.5-.1.3-.3.6-.5.9l.5.5c1.4 1.4 3 3 4.1 4.8.5.9 2.1 4 1 7.3-.5 1.9-1.8 3.4-3.8 4.4z"/><path class="st142" d="M71 44.6c-.7.4-1.4.6-2.3.9-3.2.9-6 0-7.4-2.5-1.5-2.7-1-6.8 1.1-9.1-1-1.1-1.9-2.2-2.6-3.2-1-1.5-2.1-3.9-1.4-6.4.5-1.7 1.8-3.1 3.9-4.2l.2-.1c3.3-1.6 5.3-.4 6 .2 1.8 1.6 2 4.5 1.2 6.5-.1.3-.3.6-.5.9l.5.5c1.4 1.4 3 3 4.1 4.8.5.9 2.1 4 1 7.3-.5 1.9-1.8 3.4-3.8 4.4z"/><path class="st142" d="M70.7 44.5c-.7.4-1.4.6-2.3.9-3.2.9-6 0-7.4-2.5-1.5-2.7-1-6.8 1.1-9.1-1-1.1-1.9-2.2-2.6-3.2-1-1.5-2.1-3.9-1.4-6.4.5-1.7 1.8-3.1 3.9-4.2l.2-.1c3.3-1.6 5.3-.4 6 .2 1.8 1.6 2 4.5 1.2 6.5-.1.3-.3.6-.5.9l.5.5c1.4 1.4 3 3 4.1 4.8.5.9 2.1 4 1 7.3-.4 1.9-1.8 3.4-3.8 4.4z"/><path class="st142" d="M70.5 44.5c-.7.4-1.4.6-2.3.9-3.2.9-6 0-7.4-2.5-1.5-2.7-1-6.8 1.1-9.1-1-1.1-1.9-2.2-2.6-3.2-1-1.5-2.1-3.9-1.4-6.4.5-1.7 1.8-3.1 3.9-4.2l.2-.1c3.3-1.6 5.3-.4 6 .2 1.8 1.6 2 4.5 1.2 6.5-.1.3-.3.6-.5.9l.5.5c1.4 1.4 3 3 4.1 4.8.5.9 2.1 4 1 7.3-.5 1.8-1.9 3.3-3.8 4.4z"/><path class="st142" d="M70.2 44.4c-.7.4-1.4.6-2.3.9-3.2.9-6 0-7.4-2.5-1.5-2.7-1-6.8 1.1-9.1-1-1.1-1.9-2.2-2.6-3.2-1-1.5-2.1-3.9-1.4-6.4.5-1.7 1.8-3.1 3.9-4.2l.2-.1c3.3-1.6 5.3-.4 6 .2 1.8 1.6 2 4.5 1.2 6.5-.1.3-.3.6-.5.9l.5.5c1.4 1.4 3 3 4.1 4.8.5.9 2.1 4 1 7.3-.5 1.8-1.9 3.4-3.8 4.4z"/><path class="st142" d="M69.9 44.3c-.7.4-1.4.6-2.3.9-3.2.9-6 0-7.4-2.5-1.5-2.7-1-6.8 1.1-9.1-1-1.1-1.9-2.2-2.6-3.2-1-1.5-2.1-3.9-1.4-6.4.5-1.7 1.8-3.1 3.9-4.2l.2-.1c3.3-1.6 5.3-.4 6 .2 1.8 1.6 2 4.5 1.2 6.5-.1.3-.3.6-.5.9l.5.5c1.4 1.4 3 3 4.1 4.8.5.9 2.1 4 1 7.3-.5 1.9-1.8 3.4-3.8 4.4z"/><path class="st142" d="M69.6 44.2c-.7.4-1.4.6-2.3.9-3.2.9-6 0-7.4-2.5-1.5-2.7-1-6.8 1.1-9.1-1-1.1-1.9-2.2-2.6-3.2-1-1.5-2.1-3.9-1.4-6.4.5-1.7 1.8-3.1 3.9-4.2l.2-.1c3.3-1.6 5.3-.4 6 .2 1.8 1.6 2 4.5 1.2 6.5-.1.3-.3.6-.5.9l.5.5c1.4 1.4 3 3 4.1 4.8.5.9 2.1 4 1 7.3-.5 1.9-1.8 3.4-3.8 4.4z"/><path class="st142" d="M69.4 44.1c-.7.4-1.4.6-2.3.9-3.2.9-6 0-7.4-2.5-1.5-2.7-1-6.8 1.1-9.1-1-1.1-1.9-2.2-2.6-3.2-1-1.5-2.1-3.9-1.4-6.4.5-1.7 1.8-3.1 3.9-4.2l.2-.1c3.3-1.6 5.3-.4 6 .2 1.8 1.6 2 4.5 1.2 6.5-.1.3-.3.6-.5.9l.5.5c1.4 1.4 3 3 4.1 4.8.5.9 2.1 4 1 7.3-.5 1.9-1.9 3.4-3.8 4.4z"/><path class="st142" d="M69.1 44c-.7.4-1.4.6-2.3.9-3.2.9-6 0-7.4-2.5-1.5-2.7-1-6.8 1.1-9.1-1-1.1-1.9-2.2-2.6-3.2-1-1.5-2.1-3.9-1.4-6.4.5-1.7 1.8-3.1 3.9-4.2l.2-.1c3.3-1.6 5.3-.4 6 .2 1.8 1.6 2 4.5 1.2 6.5-.1.3-.3.6-.5.9l.5.5c1.4 1.4 3 3 4.1 4.8.5.9 2.1 4 1 7.3-.5 1.9-1.9 3.4-3.8 4.4z"/><path class="st142" d="M68.8 43.9c-.7.4-1.4.6-2.3.9-3.2.9-6 0-7.4-2.5-1.5-2.7-1-6.8 1.1-9.1-1-1.1-1.9-2.2-2.6-3.2-1-1.5-2.1-3.9-1.4-6.4.5-1.7 1.8-3.1 3.9-4.2l.2-.1c3.3-1.6 5.3-.4 6 .2 1.8 1.6 2 4.5 1.2 6.5-.1.3-.3.6-.5.9l.5.5c1.4 1.4 3 3 4.1 4.8.5.9 2.1 4 1 7.3-.5 1.9-1.8 3.4-3.8 4.4z"/></g><path class="st6" d="M37.8 58.7c-1.2-.2-1.5.5-1.3 1.5 1.2 6.4-1.8 11.3-7.3 14.6-7.4-7.8-22.3-15.2-22.1-23 0-.7-.5-1.1-1.1-.7-3.6 2.3-4.4 5.7-2.2 9 1.6 2.3 4.3 4.8 7.9 7.6 4.5 3.5 9.8 6.6 13.5 9.4-5.4 3.5-7.4 8.5-1.5 11.4 5.1 2.5 13-3.8 7.2-11.7 3.7-1.5 7.9-3.2 10.1-7.2 3.8-6.7-.4-10.3-3.2-10.9zm-8.5 25.2c-1.9 2.7-6.4-1.4-4.7-3.4.6-.7 1.5-1.4 2.5-1.9 2.2 2 3.2 3.7 2.2 5.3z"/><path class="st6" d="M37.4 51c1.1 1.8 1.7 4.4 1.2 5.6-1.2-.1-3.8-1.8-6.1-4.2 4.3-4.9-.3-14.7-5.1-11.6-3.2 2-4.1 5-2.2 8.9 1.9 3.9 9.9 11.6 14.4 8 1-.8 1.7-3.9-.2-6.5-.6-.8-2.5-1.1-2-.2zm-8.7-8.8c2.4 1.1 4.5 6.8 2.9 9.1-2.2-2.6-3.8-6-2.9-9.1zm17.1-23.9c-.3-.2-.9-.2-.9.5.1 2.4-2.5 4.7-5.5 6.8-2.8-2.8-6.1-1.6-7.1.2-.2.4 0 .9.5 1.1.9.3 1.7.9 2.5 1.6-1.1.8-2.1 1.6-2.8 2.4-1.2 1.4-2.2 3.4-.5 4.9.4.4.9.4.9.1.2-1.8 2-3.4 4.4-4.9 3.1 4.7 5.1 11.8 7.5 15 2.3 3.2 5.4 3.8 8 2.2.5-.3.2-.7 0-.8-2.1-.4-4.4-2.7-5.9-6.8-1.6-4.5-2.1-8.1-5.2-12.3 2-1.2 3.8-2.4 5.1-3.7 2.9-2.9-.1-5.8-1-6.3zm7.3 8c.1-.7-1.7-.3-2.3.2-.2.2-.4.4-.4.7 0 .6 0 1.1.1 1.5.4 2.2 1.8 3.2 3.7 3 .4-.1.3-.3.2-.4-1-.8-1.7-2.5-1.3-5zm12.2-1c.8-2.1 0-5.8-4-3.9-3.9 2-3.1 4.7-1.6 7.2s5.5 5.7 6.6 8.7c1.1 2.9 0 3.6-.8 4-1.4.7-4.7-2.3-2.5-5.8.2-.3-.6-1.3-1.1-.7-2.2 2.3-2 9.4 4 7.7 6-1.7 4.9-6.6 3.5-8.9-2-3.4-6.3-6.1-7-8.5-.4-1.6.1-2.3.2-2.4.9.6 1.2 1.7 1.2 2.5.3.7 1.4.5 1.5.1z"/><g><path class="st142" d="M89.3 43.6c-3-.2-5.7-1.7-7.6-4.2-3.2-4.3-3.6-10.9-1.3-19.7 3.4-12.5 10.3-16.4 15.7-16 .5 0 1 .1 1.5.2 2.7.7 4.8 2.4 6 4.8 1.4 2.8 1.4 6.3-.1 9-1.9 3.5-5.3 5.6-8.8 5.4-1-.1-2-.4-2.9-.8-.3-.1-.5-.3-.7-.5 0 .1-.1.2-.1.4-1.2 3.7-1.8 11.3-.1 13.7.1.2.2.2.3.3.5-.8 1.1-3.6.2-6.1-.3-1-.2-2 .4-2.7.6-.8 1.7-1.2 2.9-1.1 1.6.1 3.4 1 4.6 2.4 1.1 1.2 1.8 2.8 1.8 4.4-.1 6.1-5.1 10.8-11.3 10.6-.2-.1-.3-.1-.5-.1z"/><path class="st142" d="M89.1 43.4c-3-.2-5.7-1.7-7.6-4.2-3.2-4.3-3.6-10.9-1.3-19.7C83.5 7 90.5 3 95.8 3.5c.5 0 1 .1 1.5.2 2.7.7 4.8 2.4 6 4.8 1.4 2.8 1.4 6.3-.1 9-1.9 3.5-5.3 5.6-8.8 5.4-1-.1-2-.4-2.9-.8-.3-.1-.5-.3-.7-.5 0 .1-.1.2-.1.4-1.2 3.7-1.8 11.3-.1 13.7.1.2.2.2.3.3.5-.8 1.1-3.6.2-6.1-.3-1-.2-2 .4-2.7.6-.8 1.7-1.2 2.9-1.1 1.6.1 3.4 1 4.6 2.4 1.1 1.2 1.8 2.8 1.8 4.4-.1 6.1-5.1 10.8-11.3 10.6-.1-.1-.3-.1-.4-.1z"/><path class="st142" d="M88.9 43.1c-3-.2-5.7-1.7-7.6-4.2-3.2-4.3-3.6-10.9-1.3-19.7 3.3-12.4 10.2-16.4 15.6-16 .5 0 1 .1 1.5.2 2.7.7 4.8 2.4 6 4.8 1.4 2.8 1.4 6.3-.1 9-1.9 3.5-5.3 5.6-8.8 5.4-1-.1-2-.4-2.9-.8-.3-.1-.5-.3-.7-.5 0 .1-.1.2-.1.4-1.2 3.7-1.8 11.3-.1 13.7.1.2.2.2.3.3.5-.8 1.1-3.6.2-6.1-.3-1-.2-2 .4-2.7.6-.8 1.7-1.2 2.9-1.1 1.6.1 3.4 1 4.6 2.4 1.1 1.2 1.8 2.8 1.8 4.4-.1 6.1-5.1 10.8-11.3 10.6-.1-.1-.3-.1-.4-.1z"/><path class="st142" d="M88.6 42.9c-3-.2-5.7-1.7-7.6-4.2-3.2-4.3-3.6-10.9-1.3-19.7C83.1 6.5 90 2.6 95.4 3c.5 0 1 .1 1.5.2 2.7.7 4.8 2.4 6 4.8 1.4 2.8 1.4 6.3-.1 9-1.9 3.5-5.3 5.6-8.8 5.4-1-.1-2-.4-2.9-.8-.3-.1-.5-.3-.7-.5 0 .1-.1.2-.1.4-1.2 3.7-1.8 11.3-.1 13.7.1.2.2.2.3.3.5-.8 1.1-3.6.2-6.1-.3-1-.2-2 .4-2.7.6-.8 1.7-1.2 2.9-1.1 1.6.1 3.4 1 4.6 2.4 1.1 1.2 1.8 2.8 1.8 4.4-.1 6.1-5.1 10.8-11.3 10.6-.1-.1-.3-.1-.5-.1z"/><path class="st142" d="M88.4 42.7c-3-.2-5.7-1.7-7.6-4.2-3.2-4.3-3.6-10.9-1.3-19.7 3.4-12.5 10.3-16.5 15.7-16 .5 0 1 .1 1.5.2 2.7.7 4.8 2.4 6 4.8 1.4 2.8 1.4 6.3-.1 9-1.9 3.5-5.3 5.6-8.8 5.4-1-.1-2-.4-2.9-.8-.3-.1-.5-.3-.7-.5 0 .1-.1.2-.1.4C88.8 25 88.3 32.6 90 35c.1.2.2.2.3.3.5-.8 1.1-3.6.2-6.1-.3-1-.2-2 .4-2.7.6-.8 1.7-1.2 2.9-1.1 1.6.1 3.4 1 4.6 2.4 1.1 1.2 1.8 2.8 1.8 4.4-.1 6.1-5.1 10.8-11.3 10.6-.2-.1-.3-.1-.5-.1z"/><path class="st142" d="M88.2 42.4c-3-.2-5.7-1.7-7.6-4.2-3.2-4.3-3.6-10.9-1.3-19.7C82.6 6.1 89.6 2.1 95 2.6c.5 0 1 .1 1.5.2 2.7.7 4.8 2.4 6 4.8 1.4 2.8 1.4 6.3-.1 9-1.9 3.5-5.3 5.6-8.8 5.4-1-.1-2-.4-2.9-.8-.3-.1-.5-.3-.7-.5 0 .1-.1.2-.1.4-1.2 3.7-1.8 11.3-.1 13.7.1.2.2.2.3.3.5-.8 1.1-3.6.2-6.1-.3-1-.2-2 .4-2.7.6-.8 1.7-1.2 2.9-1.1 1.6.1 3.4 1 4.6 2.4 1.1 1.2 1.8 2.8 1.8 4.4-.1 6.1-5.1 10.8-11.3 10.6-.2-.2-.3-.2-.5-.2z"/><path class="st142" d="M88 42.2c-3-.2-5.7-1.7-7.6-4.2-3.2-4.3-3.6-10.9-1.3-19.7 3.3-12.5 10.2-16.4 15.6-16 .5 0 1 .1 1.5.2 2.7.7 4.8 2.4 6 4.8 1.4 2.8 1.4 6.3-.1 9-1.9 3.5-5.3 5.6-8.8 5.4-1-.1-2-.4-2.9-.8-.3-.1-.5-.3-.7-.5 0 .1-.1.2-.1.4-1.2 3.7-1.8 11.3-.1 13.7.1.2.2.2.3.3.5-.8 1.1-3.6.2-6.1-.3-1-.2-2 .4-2.7.6-.8 1.7-1.2 2.9-1.1 1.6.1 3.4 1 4.6 2.4 1.1 1.2 1.8 2.8 1.8 4.4-.1 6.1-5.1 10.8-11.3 10.6-.1-.1-.3-.1-.4-.1z"/><path class="st142" d="M87.8 42c-3-.2-5.7-1.7-7.6-4.2-3.2-4.3-3.6-11-1.3-19.8C82.2 5.6 89.1 1.7 94.5 2.1c.5 0 1 .1 1.5.2 2.7.7 4.8 2.4 6 4.8 1.4 2.8 1.4 6.3-.1 9-1.9 3.5-5.3 5.6-8.8 5.4-1-.1-2-.4-2.9-.8-.3-.1-.5-.3-.7-.5 0 .1-.1.2-.1.4-1.2 3.7-1.8 11.3-.1 13.7.1.2.2.2.3.3.5-.8 1.1-3.6.2-6.1-.3-1-.2-2 .4-2.7.6-.8 1.7-1.2 2.9-1.1 1.6.1 3.4 1 4.6 2.4 1.1 1.2 1.8 2.8 1.8 4.4-.1 6.1-5.1 10.8-11.3 10.6-.1-.1-.3-.1-.4-.1z"/><path class="st142" d="M87.5 41.7c-3-.2-5.7-1.7-7.6-4.2-3.2-4.3-3.6-10.9-1.3-19.7C82 5.4 88.9 1.4 94.3 1.9c.5 0 1 .1 1.5.2 2.7.7 4.8 2.4 6 4.8 1.4 2.8 1.4 6.3-.1 9-1.9 3.5-5.3 5.6-8.8 5.4-1-.1-2-.4-2.9-.8-.3-.1-.5-.3-.7-.5 0 .1-.1.2-.1.4-1.2 3.7-1.8 11.3-.1 13.7.1.2.2.2.3.3.5-.8 1.1-3.6.2-6.1-.3-1-.2-2 .4-2.7.6-.8 1.7-1.2 2.9-1.1 1.6.1 3.4 1 4.6 2.4 1.1 1.2 1.8 2.8 1.8 4.4-.1 6-5.1 10.7-11.3 10.5-.2 0-.3-.1-.5-.1z"/><path class="st142" d="M87.3 41.5c-3-.2-5.7-1.7-7.6-4.2-3.2-4.3-3.6-10.9-1.3-19.7 3.3-12.5 10.3-16.4 15.7-16 .5 0 1 .1 1.5.2 2.7.7 4.8 2.4 6 4.8 1.4 2.8 1.4 6.3-.1 9-1.9 3.5-5.3 5.6-8.8 5.4-1-.1-2-.4-2.9-.8-.3-.1-.5-.3-.7-.5 0 .1-.1.2-.1.4-1.2 3.7-1.8 11.3-.1 13.7.1.2.2.2.3.3.5-.8 1.1-3.6.2-6.1-.3-1-.2-2 .4-2.7.6-.8 1.7-1.2 2.9-1.1 1.6.1 3.4 1 4.6 2.4 1.1 1.2 1.8 2.8 1.8 4.4-.1 6-5.2 10.8-11.3 10.5h-.5z"/><path class="st142" d="M87.1 41.3c-3-.2-5.7-1.7-7.6-4.2-3.2-4.3-3.6-10.9-1.3-19.7C81.5 4.9 88.4 1 93.8 1.4c.5 0 1 .1 1.5.2 2.7.7 4.8 2.4 6 4.8 1.4 2.8 1.4 6.3-.1 9-1.9 3.5-5.3 5.6-8.8 5.4-1-.1-2-.4-2.9-.8-.3-.1-.5-.3-.7-.5 0 .1-.1.2-.1.4-1.2 3.7-1.8 11.3-.1 13.7.1.2.2.2.3.3.5-.8 1.1-3.6.2-6.1-.3-1-.2-2 .4-2.7.6-.8 1.7-1.2 2.9-1.1 1.6.1 3.4 1 4.6 2.4 1.1 1.2 1.8 2.8 1.8 4.4-.1 6.1-5.1 10.8-11.3 10.6-.1-.1-.3-.1-.4-.1z"/><path class="st142" d="M86.9 41c-3-.2-5.7-1.7-7.6-4.2-3.2-4.3-3.6-10.9-1.3-19.7C81.3 4.7 88.2.7 93.6 1.2c.5 0 1 .1 1.5.2 2.7.7 4.8 2.4 6 4.8 1.4 2.8 1.4 6.3-.1 9-1.9 3.5-5.3 5.6-8.8 5.4-1-.1-2-.4-2.9-.8-.3-.1-.5-.3-.7-.5 0 .1-.1.2-.1.4-1.2 3.7-1.8 11.3-.1 13.7.1.2.2.2.3.3.5-.8 1.1-3.6.2-6.1-.3-1-.2-2 .4-2.7.6-.8 1.7-1.2 2.9-1.1 1.6.1 3.4 1 4.6 2.4 1.1 1.2 1.8 2.8 1.8 4.4-.1 6.1-5.1 10.8-11.3 10.6-.1-.1-.3-.1-.4-.2zM113.6 43.2c-1.6-.2-2.9-.8-3.9-1.9-.1.1-.2.3-.3.4-.5.5-1.4 1-2.8.9-2.1-.2-3.7-.9-4.8-2.2-1.5-1.8-2-4.4-1.5-8.1.4-2.7 1.9-6.5 3.5-10.6 2.1-5.2 4.9-12.4 4.1-14.8-.5-1.7.3-3.3 2-4 1-.4 2.3-.3 2.8-.3 3.5.3 6 2.4 6.6 5.6.4 2.1-.6 4.9-2.1 8 .6-.1 1.3-.1 1.9-.1.4 0 .7.1 1.1.2 3.1.8 4.1 2.3 4.5 3.4.4 1.2.1 2.4-.8 3.3-.9 1-2.8 3.1-4.4 6.7-1.8 4.1-2.4 8-2 9.5.3 1.1 0 2.3-.7 3.1-.7.8-1.8 1.1-3 1l-.2-.1z"/><path class="st142" d="M113.4 43c-1.6-.2-2.9-.8-3.9-1.9-.1.1-.2.3-.3.4-.5.5-1.4 1-2.8.9-2.1-.2-3.7-.9-4.8-2.2-1.5-1.8-2-4.4-1.5-8.1.4-2.7 1.9-6.5 3.5-10.6 2.1-5.2 4.9-12.4 4.1-14.8-.5-1.7.3-3.3 2-4 1-.4 2.3-.3 2.8-.3 3.5.3 6 2.4 6.6 5.6.4 2.1-.6 4.9-2.1 8 .6-.1 1.3-.1 1.9-.1.4 0 .7.1 1.1.2 3.1.8 4.1 2.3 4.5 3.4.4 1.2.1 2.4-.8 3.3-.9 1-2.8 3.1-4.4 6.7-1.8 4.1-2.4 8-2 9.5.3 1.1 0 2.3-.7 3.1-.7.8-1.8 1.1-3 1l-.2-.1z"/><path class="st142" d="M113.2 42.8c-1.6-.2-2.9-.8-3.9-1.9-.1.1-.2.3-.3.4-.5.5-1.4 1-2.8.9-2.1-.2-3.7-.9-4.8-2.2-1.5-1.8-2-4.4-1.5-8.1.4-2.7 1.9-6.5 3.5-10.6 2.1-5.2 4.9-12.4 4.1-14.8-.5-1.7.3-3.3 2-4 1-.4 2.3-.3 2.8-.3 3.5.3 6 2.4 6.6 5.6.4 2.1-.6 4.9-2.1 8 .6-.1 1.3-.1 1.9-.1.4 0 .7.1 1.1.2 3.1.8 4.1 2.3 4.5 3.4.4 1.2.1 2.4-.8 3.3-.9 1-2.8 3.1-4.4 6.7-1.8 4.1-2.4 8-2 9.5.3 1.1 0 2.3-.7 3.1-.7.8-1.8 1.1-3 1l-.2-.1z"/><path class="st142" d="M113 42.5c-1.6-.2-2.9-.8-3.9-1.9-.1.1-.2.3-.3.4-.5.5-1.4 1-2.8.9-2.1-.2-3.7-.9-4.8-2.2-1.5-1.8-2-4.4-1.5-8.1.4-2.7 1.9-6.5 3.5-10.6 2.1-5.2 4.9-12.4 4.1-14.8-.5-1.7.3-3.3 2-4 1-.4 2.3-.3 2.8-.3 3.5.3 6 2.4 6.6 5.6.4 2.1-.6 4.9-2.1 8 .6-.1 1.3-.1 1.9-.1.4 0 .7.1 1.1.2 3.1.8 4.1 2.3 4.5 3.4.4 1.2.1 2.4-.8 3.3-.9 1-2.8 3.1-4.4 6.7-1.8 4.1-2.4 8-2 9.5.3 1.1 0 2.3-.7 3.1-.7.8-1.8 1.1-3 1l-.2-.1z"/><path class="st142" d="M112.8 42.3c-1.6-.2-2.9-.8-3.9-1.9-.1.1-.2.3-.3.4-.5.5-1.4 1-2.8.9-2.1-.2-3.7-.9-4.8-2.2-1.5-1.8-2-4.4-1.5-8.1.4-2.7 1.9-6.5 3.5-10.6 2.1-5.2 4.9-12.4 4.1-14.8-.5-1.7.3-3.3 2-4 1-.4 2.3-.3 2.8-.3 3.5.3 6 2.4 6.6 5.6.4 2.1-.6 4.9-2.1 8 .6-.1 1.3-.1 1.9-.1.4 0 .7.1 1.1.2 3.1.8 4.1 2.3 4.5 3.4.4 1.2.1 2.4-.8 3.3-.9 1-2.8 3.1-4.4 6.7-1.8 4.1-2.4 8-2 9.5.3 1.1 0 2.3-.7 3.1-.7.8-1.8 1.1-3 1l-.2-.1z"/><path class="st142" d="M112.6 42.1c-1.6-.2-2.9-.8-3.9-1.9-.1.1-.2.3-.3.4-.5.5-1.4 1-2.8.9-2.1-.2-3.7-.9-4.8-2.2-1.5-1.8-2-4.4-1.5-8.1.4-2.7 1.9-6.5 3.5-10.6 2.1-5.2 4.9-12.4 4.1-14.8-.5-1.7.3-3.3 2-4 1-.4 2.3-.3 2.8-.3 3.5.3 6 2.4 6.6 5.6.4 2.1-.6 4.9-2.1 8 .6-.1 1.3-.1 1.9-.1.4 0 .7.1 1.1.2 3.1.8 4.1 2.3 4.5 3.4.4 1.2.1 2.4-.8 3.3-.9 1-2.8 3.1-4.4 6.7-1.8 4.1-2.4 8-2 9.5.3 1.1 0 2.3-.7 3.1-.7.8-1.8 1.1-3 1l-.2-.1z"/><path class="st142" d="M112.4 41.8c-1.6-.2-2.9-.8-3.9-1.9-.1.1-.2.3-.3.4-.5.5-1.4 1-2.8.9-2.1-.2-3.7-.9-4.8-2.2-1.5-1.8-2-4.4-1.5-8.1.4-2.7 1.9-6.5 3.5-10.6 2.1-5.2 4.9-12.4 4.1-14.8-.5-1.7.3-3.3 2-4 1-.4 2.3-.3 2.8-.3 3.5.3 6 2.4 6.6 5.6.4 2.1-.6 4.9-2.1 8 .6-.1 1.3-.1 1.9-.1.4 0 .7.1 1.1.2 3.1.8 4.1 2.3 4.5 3.4.4 1.2.1 2.4-.8 3.3-.9 1-2.8 3.1-4.4 6.7-1.8 4.1-2.4 8-2 9.5.3 1.1 0 2.3-.7 3.1-.7.8-1.8 1.1-3 1l-.2-.1z"/><path class="st142" d="M112.2 41.6c-1.6-.2-2.9-.8-3.9-1.9-.1.1-.2.3-.3.4-.5.5-1.4 1-2.8.9-2.1-.2-3.7-.9-4.8-2.2-1.5-1.8-2-4.4-1.5-8.1.4-2.7 1.9-6.5 3.5-10.6 2.1-5.2 4.9-12.4 4.1-14.8-.5-1.7.3-3.3 2-4 1-.4 2.3-.3 2.8-.3 3.5.3 6 2.4 6.6 5.6.4 2.1-.6 4.9-2.1 8 .6-.1 1.3-.1 1.9-.1.4 0 .7.1 1.1.2 3.1.8 4.1 2.3 4.5 3.4.4 1.2.1 2.4-.8 3.3-.9 1-2.8 3.1-4.4 6.7-1.8 4.1-2.4 8-2 9.5.3 1.1 0 2.3-.7 3.1-.7.8-1.8 1.1-3 1l-.2-.1z"/><path class="st142" d="M111.9 41.4c-1.6-.2-2.9-.8-3.9-1.9-.1.1-.2.3-.3.4-.5.5-1.4 1-2.8.9-2.1-.2-3.7-.9-4.8-2.2-1.5-1.8-2-4.4-1.5-8.1.4-2.7 1.9-6.5 3.5-10.6 2.1-5.2 4.9-12.4 4.1-14.8-.5-1.7.3-3.3 2-4 1-.4 2.3-.3 2.8-.3 3.5.3 6 2.4 6.6 5.6.4 2.1-.6 4.9-2.1 8 .6-.1 1.3-.1 1.9-.1.4 0 .7.1 1.1.2 3.1.8 4.1 2.3 4.5 3.4.4 1.2.1 2.4-.8 3.3-.9 1-2.8 3.1-4.4 6.7-1.8 4.1-2.4 8-2 9.5.3 1.1 0 2.3-.7 3.1-.7.8-1.8 1.1-3 1l-.2-.1z"/><path class="st142" d="M111.7 41.1c-1.6-.2-2.9-.8-3.9-1.9-.1.1-.2.3-.3.4-.5.5-1.4 1-2.8.9-2.1-.2-3.7-.9-4.8-2.2-1.5-1.8-2-4.4-1.5-8.1.4-2.7 1.9-6.5 3.5-10.6 2.1-5.2 4.9-12.4 4.1-14.8-.5-1.7.3-3.3 2-4 1-.4 2.3-.3 2.8-.3 3.5.3 6 2.4 6.6 5.6.4 2.1-.6 4.9-2.1 8 .6-.1 1.3-.1 1.9-.1.4 0 .7.1 1.1.2 3.1.8 4.1 2.3 4.5 3.4.4 1.2.1 2.4-.8 3.3-.9 1-2.8 3.1-4.4 6.7-1.8 4.1-2.4 8-2 9.5.3 1.1 0 2.3-.7 3.1-.7.8-1.8 1.1-3 1l-.2-.1z"/><path class="st142" d="M111.5 40.9c-1.6-.2-2.9-.8-3.9-1.9-.1.1-.2.3-.3.4-.5.5-1.4 1-2.8.9-2.1-.2-3.7-.9-4.8-2.2-1.5-1.8-2-4.4-1.5-8.1.4-2.7 1.9-6.5 3.5-10.6 2.1-5.2 4.9-12.4 4.1-14.8-.5-1.7.3-3.3 2-4 1-.4 2.3-.3 2.8-.3 3.5.3 6 2.4 6.6 5.6.4 2.1-.6 4.9-2.1 8 .6-.1 1.3-.1 1.9-.1.4 0 .7.1 1.1.2 3.1.8 4.1 2.3 4.5 3.4.4 1.2.1 2.4-.8 3.3-.9 1-2.8 3.1-4.4 6.7-1.8 4.1-2.4 8-2 9.5.3 1.1 0 2.3-.7 3.1-.7.8-1.8 1.1-3 1l-.2-.1z"/><path class="st142" d="M111.3 40.7c-1.6-.2-2.9-.8-3.9-1.9-.1.1-.2.3-.3.4-.5.5-1.4 1-2.8.9-2.1-.2-3.7-.9-4.8-2.2-1.5-1.8-2-4.4-1.5-8.1.4-2.7 1.9-6.5 3.5-10.6 2.1-5.2 4.9-12.4 4.1-14.8-.5-1.7.3-3.3 2-4 1-.4 2.3-.3 2.8-.3 3.5.3 6 2.4 6.6 5.6.4 2.1-.6 4.9-2.1 8 .6-.1 1.3-.1 1.9-.1.4 0 .7.1 1.1.2 3.1.8 4.1 2.3 4.5 3.4.4 1.2.1 2.4-.8 3.3-.9 1-2.8 3.1-4.4 6.7-1.8 4.1-2.4 8-2 9.5.3 1.1 0 2.3-.7 3.1-.7.8-1.8 1.1-3 1l-.2-.1z"/><g><path class="st142" d="M121.1 43.9c-2.3-1.3-3.2-3.2-3.6-4.6-.8-3.3.4-7.3 3.8-12.3 5.6-8.3 10.8-6.9 12.7-5.9.1.1.2.1.4.2 2.3 1.3 3.6 3.4 3.7 5.7 1.1 1.3 2 3.5.5 7-.7 1.6-1.7 2.9-2.8 4.2-1.2 1.5-2.5 3.1-3.2 5.2-.2.6-.3 1-.3 1.5-.1.5-.2.9-.3 1.3-.3.8-.9 1.3-1.6 1.6-.8.3-1.7.1-2.5-.3-.2-.1-.3-.2-.5-.3-1-.8-1.8-1.8-2.4-3-1.9.5-3.3 0-3.9-.3z"/><path class="st142" d="M121 43.6c-2.3-1.3-3.2-3.2-3.6-4.6-.8-3.3.4-7.3 3.8-12.3 5.6-8.3 10.8-6.9 12.7-5.9.1.1.2.1.4.2 2.3 1.3 3.6 3.4 3.7 5.7 1.1 1.3 2 3.5.5 7-.7 1.6-1.7 2.9-2.8 4.2-1.2 1.5-2.5 3.1-3.2 5.2-.2.6-.3 1-.3 1.5-.1.5-.2.9-.3 1.3-.3.8-.9 1.3-1.6 1.6-.8.3-1.7.1-2.5-.3-.2-.1-.3-.2-.5-.3-1-.8-1.8-1.8-2.4-3-2 .5-3.3 0-3.9-.3z"/><path class="st142" d="M120.9 43.3c-2.3-1.3-3.2-3.2-3.6-4.6-.8-3.3.4-7.3 3.8-12.3 5.6-8.3 10.8-6.9 12.7-5.9.1.1.2.1.4.2 2.3 1.3 3.6 3.4 3.7 5.7 1.1 1.3 2 3.5.5 7-.7 1.6-1.7 2.9-2.8 4.2-1.2 1.5-2.5 3.1-3.2 5.2-.2.6-.3 1-.3 1.5-.1.5-.2.9-.3 1.3-.3.8-.9 1.3-1.6 1.6-.8.3-1.7.1-2.5-.3-.2-.1-.3-.2-.5-.3-1-.8-1.8-1.8-2.4-3-2 .5-3.3 0-3.9-.3z"/><path class="st142" d="M120.8 43c-2.3-1.3-3.2-3.2-3.6-4.6-.8-3.3.4-7.3 3.8-12.3 5.6-8.3 10.8-6.9 12.7-5.9.1.1.2.1.4.2 2.3 1.3 3.6 3.4 3.7 5.7 1.1 1.3 2 3.5.5 7-.7 1.6-1.7 2.9-2.8 4.2-1.2 1.5-2.5 3.1-3.2 5.2-.2.6-.3 1-.3 1.5-.1.5-.2.9-.3 1.3-.3.8-.9 1.3-1.6 1.6-.8.3-1.7.1-2.5-.3-.2-.1-.3-.2-.5-.3-1-.8-1.8-1.8-2.4-3-2 .5-3.3 0-3.9-.3z"/><path class="st142" d="M120.7 42.6c-2.3-1.3-3.2-3.2-3.6-4.6-.8-3.3.4-7.3 3.8-12.3 5.6-8.3 10.8-6.9 12.7-5.9.1.1.2.1.4.2 2.3 1.3 3.6 3.4 3.7 5.7 1.1 1.3 2 3.5.5 7-.7 1.6-1.7 2.9-2.8 4.2-1.2 1.5-2.5 3.1-3.2 5.2-.2.6-.3 1-.3 1.5-.1.5-.2.9-.3 1.3-.3.8-.9 1.3-1.6 1.6-.8.3-1.7.1-2.5-.3-.2-.1-.3-.2-.5-.3-1-.8-1.8-1.8-2.4-3-2 .6-3.3.1-3.9-.3z"/><path class="st142" d="M120.6 42.3c-2.3-1.3-3.2-3.2-3.6-4.6-.8-3.3.4-7.3 3.8-12.3 5.6-8.3 10.8-6.9 12.7-5.9.1.1.2.1.4.2 2.3 1.3 3.6 3.4 3.7 5.7 1.1 1.3 2 3.5.5 7-.7 1.6-1.7 2.9-2.8 4.2-1.2 1.5-2.5 3.1-3.2 5.2-.2.6-.3 1-.3 1.5-.1.5-.2.9-.3 1.3-.3.8-.9 1.3-1.6 1.6-.8.3-1.7.1-2.5-.3-.2-.1-.3-.2-.5-.3-1-.8-1.8-1.8-2.4-3-2 .6-3.3.1-3.9-.3z"/><path class="st142" d="M120.4 42c-2.3-1.3-3.2-3.2-3.6-4.6-.8-3.3.4-7.3 3.8-12.3 5.6-8.3 10.8-6.9 12.7-5.9.1.1.2.1.4.2 2.3 1.3 3.6 3.4 3.7 5.7 1.1 1.3 2 3.5.5 7-.7 1.6-1.7 2.9-2.8 4.2-1.2 1.5-2.5 3.1-3.2 5.2-.2.6-.3 1-.3 1.5-.1.5-.2.9-.3 1.3-.3.8-.9 1.3-1.6 1.6-.8.3-1.7.1-2.5-.3-.2-.1-.3-.2-.5-.3-1-.8-1.8-1.8-2.4-3-1.9.6-3.2.1-3.9-.3z"/><path class="st142" d="M120.3 41.7c-2.3-1.3-3.2-3.2-3.6-4.6-.8-3.3.4-7.3 3.8-12.3 5.6-8.3 10.8-6.9 12.7-5.9.1.1.2.1.4.2 2.3 1.3 3.6 3.4 3.7 5.7 1.1 1.3 2 3.5.5 7-.7 1.6-1.7 2.9-2.8 4.2-1.2 1.5-2.5 3.1-3.2 5.2-.2.6-.3 1-.3 1.5-.1.5-.2.9-.3 1.3-.3.8-.9 1.3-1.6 1.6-.8.3-1.7.1-2.5-.3-.2-.1-.3-.2-.5-.3-1-.8-1.8-1.8-2.4-3-1.9.6-3.2.1-3.9-.3z"/><path class="st142" d="M120.2 41.4c-2.3-1.3-3.2-3.2-3.6-4.6-.8-3.3.4-7.3 3.8-12.3 5.6-8.3 10.8-6.9 12.7-5.9.1.1.2.1.4.2 2.3 1.3 3.6 3.4 3.7 5.7 1.1 1.3 2 3.5.5 7-.7 1.6-1.7 2.9-2.8 4.2-1.2 1.5-2.5 3.1-3.2 5.2-.2.6-.3 1-.3 1.5-.1.5-.2.9-.3 1.3-.3.8-.9 1.3-1.6 1.6-.8.3-1.7.1-2.5-.3-.2-.1-.3-.2-.5-.3-1-.8-1.8-1.8-2.4-3-1.9.6-3.2.1-3.9-.3z"/><path class="st142" d="M120.1 41.1c-2.3-1.3-3.2-3.2-3.6-4.6-.8-3.3.4-7.3 3.8-12.3 5.6-8.3 10.8-6.9 12.7-5.9.1.1.2.1.4.2 2.3 1.3 3.6 3.4 3.7 5.7 1.1 1.3 2 3.5.5 7-.7 1.6-1.7 2.9-2.8 4.2-1.2 1.5-2.5 3.1-3.2 5.2-.2.6-.3 1-.3 1.5-.1.5-.2.9-.3 1.3-.3.8-.9 1.3-1.6 1.6-.8.3-1.7.1-2.5-.3-.2-.1-.3-.2-.5-.3-1-.8-1.8-1.8-2.4-3-1.9.6-3.2.1-3.9-.3z"/><path class="st142" d="M120 40.8c-2.3-1.3-3.2-3.2-3.6-4.6-.8-3.3.4-7.3 3.8-12.3C125.9 15.6 131 17 133 18c.1.1.2.1.4.2 2.3 1.3 3.6 3.4 3.7 5.7 1.1 1.3 2 3.5.5 7-.7 1.6-1.7 2.9-2.8 4.2-1.2 1.5-2.5 3.1-3.2 5.2-.2.6-.3 1-.3 1.5-.1.5-.2.9-.3 1.3-.3.8-.9 1.3-1.6 1.6-.8.3-1.7.1-2.5-.3-.2-.1-.3-.2-.5-.3-1-.8-1.8-1.8-2.4-3-2 .6-3.3.1-4-.3z"/><path class="st142" d="M119.9 40.5c-2.3-1.3-3.2-3.2-3.6-4.6-.8-3.3.4-7.3 3.8-12.3 5.6-8.3 10.8-6.9 12.7-5.9.1.1.2.1.4.2 2.3 1.3 3.6 3.4 3.7 5.7 1.1 1.3 2 3.5.5 7-.7 1.6-1.7 2.9-2.8 4.2-1.2 1.5-2.5 3.1-3.2 5.2-.2.6-.3 1-.3 1.5-.1.5-.2.9-.3 1.3-.3.8-.9 1.3-1.6 1.6-.8.3-1.7.1-2.5-.3-.2-.1-.3-.2-.5-.3-1-.8-1.8-1.8-2.4-3-1.9.6-3.2.1-3.9-.3z"/></g><g><path class="st142" d="M165.9 28.1c.2-1.4-.4-2.7-1.4-3.4-.5-.3-1.5-.8-2.9 0-1 .6-2.8-.1-4.8-1 .4-3.2-1-5.8-2.8-7.1-.9-.6-1.9-.9-2.8-.9-.9 0-1.8.4-2.4 1.2-.5.5-.7 1.2-.9 2-.3-.1-.7-.3-1-.4-3.7-1.1-6.7.3-7.8 3.6-.7 2 0 3.6 1 4.3.6.4 1.4.5 2.2.2.5-.2 1.1 0 1.8.2-1.3 1.7-2.9 3.4-4.2 4.8-2.3 2.5-4.4 4.9-5.7 7.1-1.9 3.3-2 6-1.7 7.7.4 2.1 1.5 3.8 3.3 5 1.1.7 2.3.7 3.2-.2.9-.8 1.3-2 1.1-3.3-.2-1 .7-3.4 3.5-6.3 1-1 1.9-1.8 2.8-2.7 2.2-2 4.2-3.9 6.2-6.6 1.6 1.1 2.9 1.7 4.2 2.2 2.6.9 4.5 0 5.7-.8 2.4-1.6 3.3-4.3 3.4-5.6z"/><path class="st142" d="M165.9 27.8c.2-1.4-.4-2.7-1.4-3.4-.5-.3-1.5-.8-2.9 0-1 .6-2.8-.1-4.8-1 .4-3.2-1-5.8-2.8-7.1-.9-.6-1.9-.9-2.8-.9-.9 0-1.8.4-2.4 1.2-.5.5-.7 1.2-.9 2-.3-.1-.7-.3-1-.4-3.7-1.1-6.7.3-7.8 3.6-.7 2 0 3.6 1 4.3.6.4 1.4.5 2.2.2.5-.2 1.1 0 1.8.2-1.3 1.7-2.9 3.4-4.2 4.8-2.3 2.5-4.4 4.9-5.7 7.1-1.9 3.3-2 6-1.7 7.7.4 2.1 1.5 3.8 3.3 5 1.1.7 2.3.7 3.2-.2.9-.8 1.3-2 1.1-3.3-.2-1 .7-3.4 3.5-6.3 1-1 1.9-1.8 2.8-2.7 2.2-2 4.2-3.9 6.2-6.6 1.6 1.1 2.9 1.7 4.2 2.2 2.6.9 4.5 0 5.7-.8 2.4-1.6 3.2-4.4 3.4-5.6z"/><path class="st142" d="M165.8 27.5c.2-1.4-.4-2.7-1.4-3.4-.5-.3-1.5-.8-2.9 0-1 .6-2.8-.1-4.8-1 .4-3.2-1-5.8-2.8-7.1-.9-.6-1.9-.9-2.8-.9-.9 0-1.8.4-2.4 1.2-.5.5-.7 1.2-.9 2-.3-.1-.7-.3-1-.4-3.7-1.1-6.7.3-7.8 3.6-.7 2 0 3.6 1 4.3.6.4 1.4.5 2.2.2.5-.2 1.1 0 1.8.2-1.3 1.7-2.9 3.4-4.2 4.8-2.3 2.5-4.4 4.9-5.7 7.1-1.9 3.3-2 6-1.7 7.7.4 2.1 1.5 3.8 3.3 5 1.1.7 2.3.7 3.2-.2.9-.8 1.3-2 1.1-3.3-.2-1 .7-3.4 3.5-6.3 1-1 1.9-1.8 2.8-2.7 2.2-2 4.2-3.9 6.2-6.6 1.6 1.1 2.9 1.7 4.2 2.2 2.6.9 4.5 0 5.7-.8 2.4-1.6 3.3-4.4 3.4-5.6z"/><path class="st142" d="M165.7 27.1c.2-1.4-.4-2.7-1.4-3.4-.5-.3-1.5-.8-2.9 0-1 .6-2.8-.1-4.8-1 .4-3.2-1-5.8-2.8-7.1-.9-.6-1.9-.9-2.8-.9-.9 0-1.8.4-2.4 1.2-.5.5-.7 1.2-.9 2-.3-.1-.7-.3-1-.4-3.7-1.1-6.7.3-7.8 3.6-.7 2 0 3.6 1 4.3.6.4 1.4.5 2.2.2.5-.2 1.1 0 1.8.2-1.3 1.7-2.9 3.4-4.2 4.8-2.3 2.5-4.4 4.9-5.7 7.1-1.9 3.3-2 6-1.7 7.7.4 2.1 1.5 3.8 3.3 5 1.1.7 2.3.7 3.2-.2.9-.8 1.3-2 1.1-3.3-.2-1 .7-3.4 3.5-6.3 1-1 1.9-1.8 2.8-2.7 2.2-2 4.2-3.9 6.2-6.6 1.6 1.1 2.9 1.7 4.2 2.2 2.6.9 4.5 0 5.7-.8 2.4-1.6 3.3-4.3 3.4-5.6z"/><path class="st142" d="M165.7 26.8c.2-1.4-.4-2.7-1.4-3.4-.5-.3-1.5-.8-2.9 0-1 .6-2.8-.1-4.8-1 .4-3.2-1-5.8-2.8-7.1-.9-.6-1.9-.9-2.8-.9-.9 0-1.8.4-2.4 1.2-.5.5-.7 1.2-.9 2-.3-.1-.7-.3-1-.4-3.7-1.1-6.7.3-7.8 3.6-.7 2 0 3.6 1 4.3.6.4 1.4.5 2.2.2.5-.2 1.1 0 1.8.2-1.3 1.7-2.9 3.4-4.2 4.8-2.3 2.5-4.4 4.9-5.7 7.1-1.9 3.3-2 6-1.7 7.7.4 2.1 1.5 3.8 3.3 5 1.1.7 2.3.7 3.2-.2.9-.8 1.3-2 1.1-3.3-.2-1 .7-3.4 3.5-6.3 1-1 1.9-1.8 2.8-2.7 2.2-2 4.2-3.9 6.2-6.6 1.6 1.1 2.9 1.7 4.2 2.2 2.6.9 4.5 0 5.7-.8 2.4-1.6 3.2-4.4 3.4-5.6z"/><path class="st142" d="M165.6 26.5c.2-1.4-.4-2.7-1.4-3.4-.5-.3-1.5-.8-2.9 0-1 .6-2.8-.1-4.8-1 .4-3.2-1-5.8-2.8-7.1-.9-.6-1.9-.9-2.8-.9-.9 0-1.8.4-2.4 1.2-.5.5-.7 1.2-.9 2-.3-.1-.7-.3-1-.4-3.7-1.1-6.7.3-7.8 3.6-.7 2 0 3.6 1 4.3.6.4 1.4.5 2.2.2.5-.2 1.1 0 1.8.2-1.3 1.7-2.9 3.4-4.2 4.8-2.3 2.5-4.4 4.9-5.7 7.1-1.9 3.3-2 6-1.7 7.7.4 2.1 1.5 3.8 3.3 5 1.1.7 2.3.7 3.2-.2.9-.8 1.3-2 1.1-3.3-.2-1 .7-3.4 3.5-6.3 1-1 1.9-1.8 2.8-2.7 2.2-2 4.2-3.9 6.2-6.6 1.6 1.1 2.9 1.7 4.2 2.2 2.6.9 4.5 0 5.7-.8 2.4-1.6 3.2-4.4 3.4-5.6z"/><path class="st142" d="M165.5 26.2c.2-1.4-.4-2.7-1.4-3.4-.5-.3-1.5-.8-2.9 0-1 .6-2.8-.1-4.8-1 .4-3.2-1-5.8-2.8-7.1-.9-.6-1.9-.9-2.8-.9-.9 0-1.8.4-2.4 1.2-.5.5-.7 1.2-.9 2-.3-.1-.7-.3-1-.4-3.7-1.1-6.7.3-7.8 3.6-.7 2 0 3.6 1 4.3.6.4 1.4.5 2.2.2.5-.2 1.1 0 1.8.2-1.3 1.7-2.9 3.4-4.2 4.8-2.3 2.5-4.4 4.9-5.7 7.1-1.9 3.3-2 6-1.7 7.7.4 2.1 1.5 3.8 3.3 5 1.1.7 2.3.7 3.2-.2.9-.8 1.3-2 1.1-3.3-.2-1 .7-3.4 3.5-6.3 1-1 1.9-1.8 2.8-2.7 2.2-2 4.2-3.9 6.2-6.6 1.6 1.1 2.9 1.7 4.2 2.2 2.6.9 4.5 0 5.7-.8 2.4-1.7 3.3-4.4 3.4-5.6z"/><path class="st142" d="M165.4 25.8c.2-1.4-.4-2.7-1.4-3.4-.5-.3-1.5-.8-2.9 0-1 .6-2.8-.1-4.8-1 .4-3.2-1-5.8-2.8-7.1-.9-.6-1.9-.9-2.8-.9-.9 0-1.8.4-2.4 1.2-.5.5-.7 1.2-.9 2-.3-.1-.7-.3-1-.4-3.7-1.1-6.7.3-7.8 3.6-.7 2 0 3.6 1 4.3.6.4 1.4.5 2.2.2.5-.2 1.1 0 1.8.2-1.3 1.7-2.9 3.4-4.2 4.8-2.3 2.5-4.4 4.9-5.7 7.1-1.9 3.3-2 6-1.7 7.7.4 2.1 1.5 3.8 3.3 5 1.1.7 2.3.7 3.2-.2.9-.8 1.3-2 1.1-3.3-.2-1 .7-3.4 3.5-6.3 1-1 1.9-1.8 2.8-2.7 2.2-2 4.2-3.9 6.2-6.6 1.6 1.1 2.9 1.7 4.2 2.2 2.6.9 4.5 0 5.7-.8 2.4-1.6 3.3-4.3 3.4-5.6z"/><path class="st142" d="M165.4 25.5c.2-1.4-.4-2.7-1.4-3.4-.5-.3-1.5-.8-2.9 0-1 .6-2.8-.1-4.8-1 .4-3.2-1-5.8-2.8-7.1-.9-.6-1.9-.9-2.8-.9-.9 0-1.8.4-2.4 1.2-.5.5-.7 1.2-.9 2-.3-.1-.7-.3-1-.4-3.7-1.1-6.7.3-7.8 3.6-.7 2 0 3.6 1 4.3.6.4 1.4.5 2.2.2.5-.2 1.1 0 1.8.2-1.3 1.7-2.9 3.4-4.2 4.8-2.3 2.5-4.4 4.9-5.7 7.1-1.9 3.3-2 6-1.7 7.7.4 2.1 1.5 3.8 3.3 5 1.1.7 2.3.7 3.2-.2.9-.8 1.3-2 1.1-3.3-.2-1 .7-3.4 3.5-6.3 1-1 1.9-1.8 2.8-2.7 2.2-2 4.2-3.9 6.2-6.6 1.6 1.1 2.9 1.7 4.2 2.2 2.6.9 4.5 0 5.7-.8 2.4-1.6 3.2-4.4 3.4-5.6z"/><path class="st142" d="M165.3 25.2c.2-1.4-.4-2.7-1.4-3.4-.5-.3-1.5-.8-2.9 0-1 .6-2.8-.1-4.8-1 .4-3.2-1-5.8-2.8-7.1-.9-.6-1.9-.9-2.8-.9-.9 0-1.8.4-2.4 1.2-.5.5-.7 1.2-.9 2-.3-.1-.7-.3-1-.4-3.7-1.1-6.7.3-7.8 3.6-.7 2 0 3.6 1 4.3.6.4 1.4.5 2.2.2.5-.2 1.1 0 1.8.2-1.3 1.7-2.9 3.4-4.2 4.8-2.3 2.5-4.4 4.9-5.7 7.1-1.9 3.3-2 6-1.7 7.7.4 2.1 1.5 3.8 3.3 5 1.1.7 2.3.7 3.2-.2.9-.8 1.3-2 1.1-3.3-.2-1 .7-3.4 3.5-6.3 1-1 1.9-1.8 2.8-2.7 2.2-2 4.2-3.9 6.2-6.6 1.6 1.1 2.9 1.7 4.2 2.2 2.6.9 4.5 0 5.7-.8 2.4-1.7 3.3-4.4 3.4-5.6z"/><path class="st142" d="M165.2 24.8c.2-1.4-.4-2.7-1.4-3.4-.5-.3-1.5-.8-2.9 0-1 .6-2.8-.1-4.8-1 .4-3.2-1-5.8-2.8-7.1-.9-.6-1.9-.9-2.8-.9-.9 0-1.8.4-2.4 1.2-.5.5-.7 1.2-.9 2-.3-.1-.7-.3-1-.4-3.7-1.1-6.7.3-7.8 3.6-.7 2 0 3.6 1 4.3.6.4 1.4.5 2.2.2.5-.2 1.1 0 1.8.2-1.3 1.7-2.9 3.4-4.2 4.8-2.3 2.5-4.4 4.9-5.7 7.1-1.9 3.3-2 6-1.7 7.7.4 2.1 1.5 3.8 3.3 5 1.1.7 2.3.6 3.2-.2.9-.8 1.3-2 1.1-3.3-.2-1 .7-3.4 3.5-6.3 1-1 1.9-1.8 2.8-2.7 2.2-2 4.2-3.9 6.2-6.6 1.6 1.1 2.9 1.7 4.2 2.2 2.6.9 4.5 0 5.7-.8 2.4-1.6 3.3-4.3 3.4-5.6z"/><path class="st142" d="M165.2 24.5c.2-1.4-.4-2.7-1.4-3.4-.5-.3-1.5-.8-2.9 0-1 .6-2.8-.1-4.8-1 .4-3.2-1-5.8-2.8-7.1-.9-.6-1.9-.9-2.8-.9-.9 0-1.8.4-2.4 1.2-.5.5-.7 1.2-.9 2-.3-.1-.7-.3-1-.4-3.7-1.1-6.7.3-7.8 3.6-.7 2 0 3.6 1 4.3.6.4 1.4.5 2.2.2.5-.2 1.1 0 1.8.2-1.3 1.7-2.9 3.4-4.2 4.8-2.3 2.5-4.4 4.9-5.7 7.1-1.9 3.3-2 6-1.7 7.7.4 2.1 1.5 3.8 3.3 5 1.1.7 2.3.6 3.2-.2.9-.8 1.3-2 1.1-3.3-.2-1 .7-3.4 3.5-6.3 1-1 1.9-1.8 2.8-2.7 2.2-2 4.2-3.9 6.2-6.6 1.6 1.1 2.9 1.7 4.2 2.2 2.6.9 4.5 0 5.7-.8 2.4-1.6 3.2-4.4 3.4-5.6z"/></g><path class="st6" d="M90.4 16.5C93 14.6 95.9 9 94.5 6.1c-4.3 1.9-6.8 8-8.4 12.5-1.5 4.6-2.8 17.3 3 17.5 2.4.1 3.3-5.3 2.1-9.1-.6-1.8 4.9-.6 4.9 3.2 0 5-4.4 8.6-9 8.4-4.9-.2-10.9-4.8-6.7-20.6C83.8 5.4 90.8 2.8 94.8 3.8c4.7 1.2 6 6.4 4.1 10.1-1.9 3.7-5.7 5.1-8.6 3.7-.8-.4-.2-.9.1-1.1zm21.3 21.7c.8.1 1.1-.4.9-1-.6-2.3.2-6.8 2.1-11.1 1.9-4.3 4.2-6.7 4.8-7.4.7-.7.2-1.9-2.4-2.6-3.3-.8-8.7 2.8-11 9.6 1.8-6 8.9-15.9 8.2-19.7-.7-3.8-5.1-3.7-5.7-3.4s-.6.8-.5 1c1.7 5.3-6.6 20.3-7.5 26.5-.9 6.2 1.7 7.3 3.9 7.5.5 0 .9-.1.8-.8-.5-4.7 3.3-14.8 8.9-18.7-4 4.5-10 19.1-2.5 20.1zm22.7-13.5c.5-1.7 0-3.5-2.4-4.7-2.5-1.3-6.1-.4-9.9 5.2-3.8 5.6-5.2 10.7-1.2 13 .9.5 2.5.3 4.7-2-.7 1.8.2 4.2 1.7 5.4.5.4 1.1.5 1.3 0 .2-.4.2-1.4.6-2.6 1.4-4.3 4.7-6.6 6-9.6 1.3-3 .4-4.6-2.1-5.4-.5-.2-.6 0-.6.4-.4 2-2.6 5-4.2 6.7-1.6 1.7-4.2 4.7-5.8 5.1-.1-2.6 1.7-6.2 4.4-9.6 2.8-3.4 4.5-4.3 5.2-3.7.5.3.4 2.2.3 2.6 0 .4 1.7.2 2-.8zm28.4-.5c0-.4-.1-1-.8-.6-2.3 1.2-5.5-.2-8.7-2 1.7-4.1-.7-6.7-2.9-6.7-.5 0-.9.4-.8 1 0 1-.2 2.1-.6 3.2-1.2-.7-2.4-1.2-3.4-1.5-1.8-.5-4.1-.5-4.9 1.9-.2.6-.1 1.1.3.9 1.8-.7 4 .4 6.4 1.9-3.4 5.2-9.5 10.6-11.7 14.4-2.2 3.8-1.7 7 .9 8.8.5.3.8-.1.7-.4-.4-2.2.9-5.6 4.3-9 3.7-3.7 7-5.9 10-10.9 1.9 1.3 3.8 2.5 5.5 3.2 3.9 1.3 5.5-3 5.7-4.2z"/></g></g></svg>